HIERARCHY
ROOT root
{
	OFFSET	0	13.1	24.9
	CHANNELS 6  Xposition Yposition Zposition Xrotation Yrotation Zrotation
	JOINT spine_1
	{
		OFFSET	0	9.99999	0
		CHANNELS 3  Xrotation Yrotation Zrotation
		JOINT spine_2
		{
			OFFSET	0	112	-10
			CHANNELS 3  Xrotation Yrotation Zrotation
			JOINT spine_3
			{
				OFFSET	0	206.5	19.3
				CHANNELS 3  Xrotation Yrotation Zrotation
				JOINT spine_4
				{
					OFFSET	0	110.4	14.6
					CHANNELS 3  Xrotation Yrotation Zrotation
					JOINT neck_1
					{
						OFFSET	0	71.8	-50.3
						CHANNELS 3  Xrotation Yrotation Zrotation
						JOINT neck_2
						{
							OFFSET	0	86.2	-25.8
							CHANNELS 3  Xrotation Yrotation Zrotation
							JOINT head_ee
							{
								OFFSET	0	179.8	-8.7
								CHANNELS 3  Xrotation Yrotation Zrotation
								End Site
								{
									OFFSET	1	0	0
								}
							}
						}
					}
					JOINT left_clavicle
					{
						OFFSET	-43.2	22.4	-70.8
						CHANNELS 3  Xrotation Yrotation Zrotation
						JOINT left_shoulder
						{
							OFFSET	-93.9	-5.79999	48.7
							CHANNELS 3  Xrotation Yrotation Zrotation
							JOINT left_elbow
							{
								OFFSET	-291.4	-30.8	15.2
								CHANNELS 3  Xrotation Yrotation Zrotation
								JOINT left_lowarm_twist
								{
									OFFSET	-110.7	-3.89999	13.6
									CHANNELS 3  Xrotation Yrotation Zrotation
									JOINT left_hand
									{
										OFFSET	-110.7	-3.89999	13.6
										CHANNELS 3  Xrotation Yrotation Zrotation
										JOINT left_ee
										{
											OFFSET	-80.8	-5.10001	12.1
											CHANNELS 3  Xrotation Yrotation Zrotation
											End Site
											{
												OFFSET	1	0	0
											}
										}
									}
								}
							}
						}
					}
					JOINT right_clavicle
					{
						OFFSET	43.2	22.4	-70.8
						CHANNELS 3  Xrotation Yrotation Zrotation
						JOINT right_shoulder
						{
							OFFSET	93.9	-5.79999	48.7
							CHANNELS 3  Xrotation Yrotation Zrotation
							JOINT right_elbow
							{
								OFFSET	291.4	-30.8	15.2
								CHANNELS 3  Xrotation Yrotation Zrotation
								JOINT right_lowarm_twist
								{
									OFFSET	110.7	-3.89999	13.6
									CHANNELS 3  Xrotation Yrotation Zrotation
									JOINT right_hand
									{
										OFFSET	110.7	-3.89999	13.6
										CHANNELS 3  Xrotation Yrotation Zrotation
										JOINT right_ee
										{
											OFFSET	80.8	-5.10001	12.1
											CHANNELS 3  Xrotation Yrotation Zrotation
											End Site
											{
												OFFSET	1	0	0
											}
										}
									}
								}
							}
						}
					}
				}
			}
		}
	}
	JOINT left_hip
	{
		OFFSET	-82.8	-127.5	0.300001
		CHANNELS 3  Xrotation Yrotation Zrotation
		JOINT left_knee
		{
			OFFSET	-28.2	-396.7	2.2
			CHANNELS 3  Xrotation Yrotation Zrotation
			JOINT left_ankle
			{
				OFFSET	-11.7	-411.3	35.4
				CHANNELS 3  Xrotation Yrotation Zrotation
				JOINT left_toes
				{
					OFFSET	0	-60	-88.6
					CHANNELS 3  Xrotation Yrotation Zrotation
					JOINT left_foot_ee
					{
						OFFSET	-22.5	-16.5	-42.2
						CHANNELS 3  Xrotation Yrotation Zrotation
						End Site
						{
							OFFSET	1	0	0
						}
					}
				}
			}
		}
	}
	JOINT right_hip
	{
		OFFSET	82.8	-127.5	0.300001
		CHANNELS 3  Xrotation Yrotation Zrotation
		JOINT right_knee
		{
			OFFSET	28.2	-396.7	2.2
			CHANNELS 3  Xrotation Yrotation Zrotation
			JOINT right_ankle
			{
				OFFSET	11.7	-411.3	35.4
				CHANNELS 3  Xrotation Yrotation Zrotation
				JOINT right_toes
				{
					OFFSET	0	-60	-88.6
					CHANNELS 3  Xrotation Yrotation Zrotation
					JOINT right_foot_ee
					{
						OFFSET	22.5	-16.5	-42.2
						CHANNELS 3  Xrotation Yrotation Zrotation
						End Site
						{
							OFFSET	1	0	0
						}
					}
				}
			}
		}
	}
}
MOTION
Frames: 7
Frame Time: 0.02
1372.05 701.618 -1475.22 -16.3524888255 67.2378179122 15.3537240672 1.48478 -0.00752482 -0.278981 1.48483 0.0102427 -0.278895 1.48478 0.0615991 -0.2722 1.48467 0.0178373 -0.278512 -10.41 17.6262 -4.39119 -10.9055 36.1533 0.538267 -0.0 0.0 -0.0 5.36349 18.2893 10.3287 -5.48758 -34.5834 61.2749 4.28995 -64.78 2.7222 6.12843 0.17526 -0.762832 0.612685 13.9072 9.5744 -0.0 0.0 -0.0 10.9373 -16.2437 -19.6734 -23.5341 12.0248 -57.4405 0.179553 5.08293 -0.00796959 4.69459 -0.141589 0.58277 3.09004 -22.4607 -28.2238 0.0 0.0 0.0 -19.6843 17.2244 3.5283 -12.8719 0.312455 1.94652 30.5316 -4.8011 -4.0164 5.84945 -0.0 -0.0 -0.0 0.0 -0.0 40.5043 15.3663 -7.25721 -2.45749 -0.0933549 -0.365561 -13.7731 4.40194 -2.11765 -15.1105 0.0 0.0 0.0 0.0 0.0 
1347.18358749 697.253 -1482.84771452 -19.7451980995 68.5143806799 18.7465274573 1.30379 0.048856 -0.436295 1.30389 0.0765193 -0.432302 1.30332 0.156383 -0.410225 1.30309 0.0896334 -0.429774 -9.80194 17.5867 -5.23517 -10.1745 36.6052 -0.530944 -0.0 0.0 -0.0 5.17275 18.3835 10.0303 -6.35234 -35.47 61.9187 3.64239 -60.9881 2.14549 5.42045 0.159198 -0.673821 0.579519 14.6958 9.65783 -0.0 0.0 -0.0 11.1492 -14.515 -20.3434 -22.7701 11.9097 -57.5638 0.162701 4.60804 -0.0065462 4.61392 -0.139561 0.572665 2.94529 -22.34 -27.222 0.0 0.0 0.0 -20.7886 16.6102 3.91907 -12.5313 0.309854 1.89432 30.4336 -4.89672 -4.00725 5.68445 -0.0 -0.0 -0.0 0.0 -0.0 41.5125 15.1591 -7.2704 -4.70279 -0.16486 -0.702707 -14.591 4.01791 -2.24166 -15.2256 0.0 0.0 0.0 0.0 0.0 
1347.24376237 697.253 -1483.04119394 -19.369657563 68.0937871146 18.3423578535 1.30379 0.048856 -0.436295 1.30389 0.0765193 -0.432302 1.30332 0.156383 -0.410225 1.30309 0.0896334 -0.429774 -9.80194 17.5867 -5.23517 -10.1745 36.6052 -0.530944 -0.0 0.0 -0.0 5.17275 18.3835 10.0303 -6.35234 -35.47 61.9187 3.64239 -60.9881 2.14549 5.42045 0.159198 -0.673821 0.579519 14.6958 9.65783 -0.0 0.0 -0.0 11.1492 -14.515 -20.3434 -22.7701 11.9097 -57.5638 0.162701 4.60804 -0.0065462 4.61392 -0.139561 0.572665 2.94529 -22.34 -27.222 0.0 0.0 0.0 -20.7886 16.6102 3.91907 -12.5313 0.309854 1.89432 30.4336 -4.89672 -4.00725 5.68445 -0.0 -0.0 -0.0 0.0 -0.0 41.5125 15.1591 -7.2704 -4.70279 -0.16486 -0.702707 -14.591 4.01791 -2.24166 -15.2256 0.0 0.0 0.0 0.0 0.0 
1329.0214757 700.827 -1490.58332636 -19.7456155586 68.7171173908 18.538979167 1.16981 0.126727 -0.460497 1.16992 0.155772 -0.4515 1.16868 0.238806 -0.413629 1.16848 0.170485 -0.446153 -9.44537 17.0547 -6.10579 -9.70329 36.171 -1.68054 -0.0 0.0 -0.0 5.16357 19.6481 9.98021 -6.76458 -34.9961 62.5146 3.32864 -58.7512 1.87409 4.9388 0.147643 -0.613379 0.545418 15.4013 9.70461 -0.0 0.0 -0.0 11.3538 -13.4098 -20.8996 -21.7653 12.0817 -58.1934 0.179324 5.07649 -0.00794936 4.67618 -0.141128 0.580463 2.86889 -22.091 -26.6538 0.0 0.0 0.0 -21.4898 16.7254 4.05918 -11.8735 0.303953 1.79357 30.3259 -4.86872 -3.99538 5.60501 -0.0 -0.0 -0.0 0.0 -0.0 42.0597 15.0851 -7.27065 -7.11042 -0.226784 -1.06698 -15.1878 4.66765 -2.34068 -14.9924 0.0 0.0 0.0 0.0 0.0 
1289.9720693 710.26 -1503.45590786 -23.4161570613 71.7214393661 21.8099921133 0.792157 0.185274 -0.515079 0.792278 0.217674 -0.502246 0.790354 0.312208 -0.449622 0.79015 0.237282 -0.493286 -9.3459 15.7968 -6.57182 -9.51425 34.1212 -2.53002 -0.0 0.0 -0.0 4.99931 19.5817 9.73364 -9.11447 -34.5115 62.9244 2.69102 -53.115 1.34525 4.6708 0.140993 -0.57979 0.52961 15.6094 9.68241 -0.0 0.0 -0.0 12.088 -7.94943 -23.1545 -16.7576 11.0057 -60.1615 0.168441 4.76988 -0.00701548 4.60712 -0.13939 0.571813 2.50042 -22.0754 -24.2207 0.0 0.0 0.0 -21.9533 16.5278 3.1876 -12.0053 0.305228 1.81376 23.9633 -4.08999 -3.26777 3.08663 -0.0 -0.0 -0.0 0.0 -0.0 43.0939 15.095 -7.37734 -14.5744 -0.320802 -2.2076 -13.3889 3.23207 -2.04845 -13.6708 0.0 0.0 0.0 0.0 0.0 
1290.20832844 710.26 -1504.13356077 -22.859695695 71.2858142629 21.2232250654 0.792157 0.185274 -0.515079 0.792278 0.217674 -0.502246 0.790354 0.312208 -0.449622 0.79015 0.237282 -0.493286 -9.3459 15.7968 -6.57182 -9.51425 34.1212 -2.53002 -0.0 0.0 -0.0 4.99931 19.5817 9.73364 -9.11447 -34.5115 62.9244 2.69102 -53.115 1.34525 4.6708 0.140993 -0.57979 0.52961 15.6094 9.68241 -0.0 0.0 -0.0 12.088 -7.94943 -23.1545 -16.7576 11.0057 -60.1615 0.168441 4.76988 -0.00701548 4.60712 -0.13939 0.571813 2.50042 -22.0754 -24.2207 0.0 0.0 0.0 -21.9533 16.5278 3.1876 -12.0053 0.305228 1.81376 23.9633 -4.08999 -3.26777 3.08663 -0.0 -0.0 -0.0 0.0 -0.0 43.0939 15.095 -7.37734 -14.5744 -0.320802 -2.2076 -13.3889 3.23207 -2.04845 -13.6708 0.0 0.0 0.0 0.0 0.0 
1243.80670074 723.036 -1515.00709835 -25.9610218781 74.8527610922 24.6919496088 -0.297684 0.238741 -0.351606 -0.297653 0.26063 -0.335701 -0.299214 0.326792 -0.271718 -0.299207 0.279778 -0.319918 -8.00743 14.2927 -4.7489 -8.01617 30.0169 -1.53101 -0.0 0.0 -0.0 4.53951 21.9272 9.00184 -9.58164 -33.1204 64.0684 2.09805 -46.0988 0.892788 4.08023 0.125785 -0.505883 -1.27962 21.5081 1.12166 -0.0 0.0 -0.0 11.4627 4.72968 -22.9725 -6.02589 6.48258 -67.1453 0.330002 9.28442 -0.0267961 0.764162 -0.0262973 0.0940524 0.766102 -21.5471 -13.2356 0.0 0.0 0.0 -16.8394 14.0774 1.17054 -24.3593 0.218479 3.70368 9.99404 3.7695 -1.42426 5.37059 -0.0 -0.0 -0.0 0.0 -0.0 44.8411 17.6226 -10.5616 -24.8732 -0.206058 -3.78156 -3.52673 -7.3014 -0.520235 -15.9464 0.0 0.0 0.0 0.0 0.0 
